<?xml version="1.0" encoding="UTF-8" standalone="no"?>
<svg
   role="img"
   viewBox="0 0 30.000001 30"
   version="1.1"
   id="svg4"
   sodipodi:docname="mongodb.svg"
   width="30"
   height="30"
   inkscape:version="1.1 (1:1.1+202105261517+ce6663b3b7)"
   xmlns:inkscape="http://www.inkscape.org/namespaces/inkscape"
   xmlns:sodipodi="http://sodipodi.sourceforge.net/DTD/sodipodi-0.dtd"
   xmlns="http://www.w3.org/2000/svg"
   xmlns:svg="http://www.w3.org/2000/svg">
  <defs
     id="defs8" />
  <sodipodi:namedview
     id="namedview6"
     pagecolor="#ffffff"
     bordercolor="#666666"
     borderopacity="1.0"
     inkscape:pageshadow="2"
     inkscape:pageopacity="0.0"
     inkscape:pagecheckerboard="0"
     showgrid="false"
     inkscape:zoom="24.483572"
     inkscape:cx="6.8617438"
     inkscape:cy="15.153018"
     inkscape:current-layer="svg4" />
  <path
     d="m 20.855159,12.19537 c -1.42719,-6.2828 -4.79346,-8.34731 -5.15506,-9.13718 -0.39776,-0.55709 -0.82829,-1.61816 -0.82829,-1.61816 -0.0023,0.02147 -0.0045,0.03503 -0.0057,0.05537 v 0.01469 h -0.0011 c -0.0023,0.01695 -0.0034,0.02825 -0.0045,0.04407 v 0.01695 h -0.0023 c 0,0.0113 -0.0023,0.02034 -0.0023,0.02938 v 0.02938 h -0.0034 c -0.0011,0.00904 -0.0011,0.02034 -0.0034,0.02825 v 0.02373 h -0.0023 c 0,0.00791 0,0.01695 -0.0023,0.02373 v 0.0226 h -0.0023 c 0,0.0113 -0.0011,0.02486 -0.0023,0.03616 V 1.7666 c -0.0034,0.01921 -0.0068,0.03842 -0.01017,0.0565 v 0.00904 h -0.0023 c -0.0011,0.00452 -0.0034,0.00904 -0.0034,0.01356 v 0.01921 h -0.0034 v 0.02486 h -0.0057 v 0.02034 h -0.0056 v 0.02373 h -0.0045 v 0.02147 h -0.0045 v 0.01921 h -0.0068 v 0.01582 h -0.0045 v 0.02034 h -0.0045 V 2.0265 h -0.0056 v 0.01469 h -0.0034 v 0.01695 h -0.0045 c -0.0011,0.00113 -0.0011,0.00339 -0.0011,0.00452 v 0.0113 h -0.0034 c -0.0011,0.00226 -0.0011,0.00452 -0.0011,0.00678 v 0.00678 h -0.0023 c -0.0011,0.00339 -0.0023,0.00904 -0.0023,0.0113 -0.0034,0.00791 -0.0079,0.01582 -0.0113,0.02373 v 0.00226 c -0.0023,0.00226 -0.0045,0.00565 -0.0057,0.00791 v 0.00904 h -0.0045 V 2.1508 h -0.0056 v 0.00904 h -0.0034 v 0.0113 h -0.0068 v 0.01582 h -0.0045 v 0.00452 h -0.0045 v 0.00904 h -0.0045 v 0.01243 h -0.0045 v 0.00904 h -0.0068 v 0.01243 h -0.0045 v 0.00904 h -0.0057 V 2.2525 h -0.0034 v 0.0113 h -0.0056 v 0.00904 h -0.0045 v 0.00678 h -0.0045 v 0.00904 h -0.0068 v 0.01017 h -0.0045 v 0.00678 h -0.0056 v 0.00904 h -0.0045 v 0.01243 h -0.0056 V 2.3316 h -0.0034 v 0.00904 h -0.0068 v 0.00452 h -0.0045 v 0.0113 h -0.0045 v 0.00452 h -0.0045 v 0.00904 h -0.0056 V 2.3768 h -0.0034 l -0.0023,0.00452 v 0.00452 h -0.0023 c -0.0011,0.00226 -0.0023,0.00226 -0.0023,0.00452 v 0.00113 h -0.0011 c -0.0011,0.00339 -0.0023,0.00565 -0.0045,0.00791 v 0.00339 h -0.0011 c -0.0057,0.00678 -0.009,0.01356 -0.01356,0.02034 v 0.00113 c -0.0023,0.00226 -0.0079,0.00678 -0.01017,0.0113 v 0.00226 h -0.0011 c -0.0011,0.00113 -0.0034,0.00226 -0.0034,0.00339 V 2.4446 h -0.0023 l -0.0034,0.00339 v 0.00113 h -0.0011 c 0,0.00113 -0.0023,0.00226 -0.0034,0.00452 v 0.00452 h -0.0034 l -0.0023,0.00226 v 0.00226 h -0.0023 c 0,0.00226 -0.0023,0.00226 -0.0023,0.00339 v 0.00339 h -0.0045 c 0,0.00113 -0.0011,0.00226 -0.0023,0.00339 v 0.00678 h -0.0034 v 0.00452 h -0.0045 v 0.00678 h -0.0045 v 0.00904 h -0.0057 V 2.49093 h -0.0056 v 0.00452 h -0.0045 v 0.00678 h -0.0056 v 0.00904 h -0.0056 v 0.00452 h -0.0045 v 0.00678 h -0.0045 v 0.00452 h -0.0045 v 0.00904 h -0.0068 v 0.00452 h -0.0045 v 0.00678 h -0.0057 v 0.00452 h -0.0045 V 2.5576 h -0.0056 v 0.0113 h -0.0023 v 0.00452 h -0.0068 v 0.00565 h -0.0045 v 0.00226 h -0.0045 v 0.00452 h -0.0056 v 0.0113 h -0.0045 v 0.00452 h -0.0057 v 0.00452 h -0.0045 v 0.00678 h -0.0057 v 0.00452 h -0.0056 v 0.00452 h -0.0045 v 0.00452 h -0.0045 v 0.0113 h -0.0045 v 0.00565 h -0.0068 V 2.648 h -0.0045 v 0.00452 h -0.0056 V 2.6593 h -0.0045 v 0.00452 h -0.0056 v 0.00791 h -0.0045 v 0.00452 h -0.0068 v 0.00678 h -0.0023 v 0.00452 h -0.0045 v 0.00452 h -0.0057 v 0.00452 h -0.0045 v 0.00678 h -0.0056 v 0.00452 h -0.0034 c -0.0011,0.00113 -0.0011,0.00226 -0.0011,0.00226 v 0.00226 h -0.0023 l -0.0045,0.00452 c 0,0 -0.0023,0.00226 -0.0045,0.00339 V 2.7271 h -0.0045 v 0.00565 h -0.0045 v 0.00452 h -0.0045 v 0.00452 h -0.0034 l -0.0034,0.00339 v 0.00339 h -0.0023 l -0.0023,0.00226 v 0.00339 h -0.0023 c -0.0056,0.00678 -0.0079,0.0113 -0.01582,0.01808 -0.0023,0.00226 -0.009,0.00791 -0.01356,0.0113 -0.01356,0.00904 -0.03051,0.02373 -0.04407,0.03616 -0.009,0.00565 -0.01808,0.01356 -0.02486,0.01921 V 2.8401 h -0.0011 c -0.01808,0.01469 -0.03503,0.02825 -0.05537,0.04407 V 2.8853 c -0.02712,0.0226 -0.05311,0.04407 -0.08362,0.07006 V 2.95423 h -0.0023 c -0.06441,0.05311 -0.13221,0.113 -0.21018,0.17967 v 0.00113 h -0.0011 c -0.19097,0.16724 -0.4181,0.38194 -0.67235,0.64184 l -0.01695,0.01695 -0.0045,0.00452 c -1.53707,1.58991 -3.9586597,4.90307 -4.2140397,10.25701 -0.0226,0.44296 -0.01808,0.87349 0.00678,1.29272 v 0.01017 c 0.12317,2.10971 0.78535,3.91093 1.6136397,5.37428 v 0.0011 c 0.32996,0.58308 0.68591,1.11305 1.04638,1.58765 v 0.0011 c 1.24526,1.64415 2.51651,2.61821 2.84082,2.85438 0.49833,1.15599 0.452,3.14027 0.452,3.14027 l 0.72772,0.24295 c 0,0 -0.14803,-1.92213 0.05989,-2.84986 0.06441,-0.29041 0.21696,-0.53788 0.39437,-0.74806 0.11978,-0.08475 0.4746,-0.34013 0.90061,-0.72885 0.02034,-0.02147 0.03164,-0.04068 0.04972,-0.06102 1.71873,-1.60234 4.92906,-5.5483 3.82844,-11.97687 z"
     id="path2"
     style="stroke-width:1.13" />
</svg>
