<?xml version="1.0" encoding="UTF-8" standalone="no"?>
<svg
   width="30"
   height="30"
   viewBox="0 0 3.072 3.071922"
   preserveAspectRatio="xMinYMin meet"
   version="1.1"
   id="svg6"
   sodipodi:docname="mysql.svg"
   inkscape:version="1.1 (1:1.1+202105261517+ce6663b3b7)"
   xmlns:inkscape="http://www.inkscape.org/namespaces/inkscape"
   xmlns:sodipodi="http://sodipodi.sourceforge.net/DTD/sodipodi-0.dtd"
   xmlns="http://www.w3.org/2000/svg"
   xmlns:svg="http://www.w3.org/2000/svg">
  <defs
     id="defs10" />
  <sodipodi:namedview
     id="namedview8"
     pagecolor="#ffffff"
     bordercolor="#666666"
     borderopacity="1.0"
     inkscape:pageshadow="2"
     inkscape:pageopacity="0.0"
     inkscape:pagecheckerboard="0"
     showgrid="false"
     inkscape:zoom="15.281092"
     inkscape:cx="14.265996"
     inkscape:cy="14.789519"
     inkscape:current-layer="svg6" />
  <g
     id="g14"
     transform="translate(0.1289756,0.15449355)">
    <path
       d="m 2.5921588,2.1372029 c -0.1531,-0.004 -0.27175,0.0115 -0.37127,0.0536 -0.0287,0.0115 -0.0746,0.0115 -0.0785,0.0478 0.0153,0.0153 0.0172,0.0402 0.0306,0.0612 0.023,0.0383 0.0631,0.0899 0.0995,0.11675 0.0402,0.0306 0.0804,0.0612 0.12247,0.088 0.0746,0.0459 0.15886,0.0727 0.23158,0.11866 0.0421,0.0268 0.0842,0.0613 0.12631,0.09 0.0211,0.0153 0.0344,0.0402 0.0612,0.0498 v -0.006 c -0.0134,-0.0172 -0.0172,-0.0421 -0.0306,-0.0613 -0.0191,-0.0191 -0.0383,-0.0364 -0.0574,-0.0555 -0.0555,-0.0746 -0.12439,-0.1397 -0.19902,-0.19328 -0.0612,-0.0421 -0.19522,-0.0995 -0.22009,-0.17034 0,0 -0.002,-0.002 -0.004,-0.004 0.0421,-0.004 0.0919,-0.0191 0.13206,-0.0306 0.0651,-0.0172 0.12438,-0.0134 0.19137,-0.0306 0.0306,-0.008 0.0612,-0.0172 0.0918,-0.0268 v -0.0172 c -0.0344,-0.0345 -0.0593,-0.0804 -0.0957,-0.11291 -0.0976,-0.0842 -0.20479,-0.16651 -0.31578,-0.2354 -0.0593,-0.0383 -0.13589,-0.0632 -0.19905,-0.0957 -0.0229,-0.0115 -0.0612,-0.0172 -0.0746,-0.0364 -0.0345,-0.0421 -0.0536,-0.0976 -0.0785,-0.14735 -0.0555,-0.10527 -0.10909,-0.222 -0.15694,-0.33299 -0.0344,-0.0746 -0.0555,-0.1493 -0.0976,-0.21817998 -0.19712,-0.32534 -0.41147,-0.52246 -0.74062996,-0.71577 -0.0708,-0.0402 -0.15503,-0.0574 -0.24497,-0.0785 -0.0478,-0.002 -0.0957,-0.006 -0.14353,-0.008 -0.0306,-0.0134 -0.0613,-0.0498 -0.088,-0.067 -0.10907,-0.0689 -0.39042,-0.21816 -0.47079,-0.021 -0.0517,0.12439 0.0766,0.24686 0.12056,0.31004 0.0326,0.044 0.0746,0.0938 0.0976,0.14352 0.0134,0.0325 0.0172,0.067 0.0306,0.10144 0.0306,0.0842 0.0593,0.17798 0.0995,0.25645 0.0211,0.0402 0.044,0.0823 0.0708,0.11864998 0.0153,0.021 0.0421,0.0306 0.0479,0.0651 -0.0268,0.0383 -0.0287,0.0957 -0.044,0.14354 -0.0689,0.21626 -0.0421,0.48419 0.0555,0.64303 0.0306,0.0478 0.10335,0.15312 0.20095,0.11291 0.0861,-0.0344 0.067,-0.14353 0.0918,-0.23922 0.006,-0.023 0.002,-0.0383 0.0134,-0.0536 v 0.004 c 0.0268,0.0536 0.0536,0.10526 0.0785,0.15884 0.0593,0.0938 0.16266996,0.19138 0.24878996,0.25646 0.046,0.0344 0.0823,0.0938 0.13972,0.11481 v -0.006 h -0.004 c -0.0115,-0.0172 -0.0287,-0.0249 -0.044,-0.0383 -0.0344,-0.0344 -0.0727,-0.0765 -0.0995,-0.11482 -0.0804,-0.10718 -0.15118996,-0.22583 -0.21433996,-0.34831 -0.0306,-0.0593 -0.0574,-0.12439 -0.0823,-0.18371 -0.0115,-0.023 -0.0115,-0.0574 -0.0306,-0.0689 -0.0287,0.0421 -0.0708,0.0785 -0.0919,0.13013 -0.0363,0.0823 -0.0402,0.18373 -0.0536,0.28897 -0.008,0.002 -0.004,0 -0.008,0.004 -0.0612,-0.0153 -0.0823,-0.0785 -0.10526,-0.13206 -0.0574,-0.13587 -0.067,-0.35405 -0.0172,-0.51097 0.0134,-0.0402 0.0708,-0.1665 0.0479,-0.20478 -0.0115,-0.0364 -0.0498,-0.0574 -0.0708,-0.0861 -0.0249,-0.0364 -0.0517,-0.0823 -0.0689,-0.12248 -0.0459,-0.10718 -0.0689,-0.22583 -0.11866,-0.33301 -0.023,-0.0498 -0.0631,-0.10142 -0.0957,-0.14735 -0.0363,-0.0517 -0.0765,-0.088 -0.10526,-0.14928 -0.01,-0.0211 -0.023,-0.0555 -0.008,-0.0785 0.004,-0.0153 0.0115,-0.021 0.0268,-0.0249 0.0249,-0.0211 0.0957,0.006 0.12056,0.0172 0.0708,0.0287 0.13014,0.0555 0.18948,0.0957 0.0268,0.0191 0.0555,0.0555 0.0899,0.0651 h 0.0402 c 0.0613,0.0134 0.13013,0.004 0.18755,0.021 0.10144,0.0325 0.19329,0.0804 0.27558996,0.13206 0.25071,0.15884 0.45738,0.38467 0.5971,0.65451 0.023,0.044 0.0325,0.0842 0.0536,0.13013 0.0402,0.0938 0.0899,0.18948 0.13013,0.28134 0.0402,0.0899 0.0785,0.1818 0.13588,0.25645 0.0287,0.0402 0.14353,0.0612 0.1952,0.0823 0.0383,0.0172 0.0976,0.0325 0.13206,0.0536 0.0651,0.0402 0.13013,0.0861 0.19138,0.13013 0.0306,0.023 0.1263,0.0708 0.13205,0.10909 z"
       id="path2"
       style="stroke-width:0.011;" />
    <path
       d="m 0.64007884,0.47411292 c -0.0325,0 -0.0555,0.004 -0.0785,0.01 v 0.004 h 0.004 c 0.0153,0.0306 0.0421,0.0517 0.0612,0.0785 0.0153,0.0306 0.0287,0.0613 0.044,0.0919 0.002,-0.002 0.004,-0.004 0.004,-0.004 0.0268,-0.0192 0.0402,-0.0498 0.0402,-0.0957 -0.0115,-0.0134 -0.0134,-0.0268 -0.023,-0.0402 -0.0115,-0.0191 -0.0364,-0.0287 -0.0517,-0.044 z"
       id="path4"
       style="stroke-width:0.011;" />
  </g>
</svg>
