<?xml version="1.0" encoding="UTF-8" standalone="no"?>
<svg
   viewBox="0 0 30 30"
   version="1.1"
   id="svg4"
   sodipodi:docname="nestjs.svg"
   width="30"
   height="30"
   inkscape:version="1.1 (1:1.1+202105261517+ce6663b3b7)"
   xmlns:inkscape="http://www.inkscape.org/namespaces/inkscape"
   xmlns:sodipodi="http://sodipodi.sourceforge.net/DTD/sodipodi-0.dtd"
   xmlns="http://www.w3.org/2000/svg"
   xmlns:svg="http://www.w3.org/2000/svg">
  <defs
     id="defs8" />
  <sodipodi:namedview
     id="namedview6"
     pagecolor="#ffffff"
     bordercolor="#666666"
     borderopacity="1.0"
     inkscape:pageshadow="2"
     inkscape:pageopacity="0.0"
     inkscape:pagecheckerboard="0"
     showgrid="false"
     inkscape:zoom="25.96875"
     inkscape:cx="13.978339"
     inkscape:cy="13.978339"
     inkscape:current-layer="svg4" />
  <path
     d="M 17.493045,1 A 1.7834932,1.781 0 0 0 16.928256,1.1 C 18.545516,2.162 16.63785,3.7 17.529095,5 A 2.2381287,2.235 0 0 1 18.607603,2.765 C 18.893002,2.528 19.076258,2.443 19.015173,2.051 18.916034,1.409 18.058836,1 17.493045,1 Z m 2.30322,0.414 c -0.223312,1.123 -0.5007,1.164 -1.324852,1.887 A 1.8235492,1.821 0 0 0 17.943675,5.492 C 14.538915,4.172 10.174814,3.374 6.9753418,5.658 5.8247333,6.479 5.122752,7.658 3.7037684,8.139 2.7864861,8.453 1.8852261,8.36 1.3104226,9.268 A 1.414978,1.413 0 0 0 1.366501,11.1 c 0.1712394,0.175 0.5006999,0.287 0.6368904,0.465 0.079111,0.1 0.077108,0.2 0.1522128,0.333 a 2.6036397,2.6 0 0 0 0.5647895,0.828 c 0.1472058,0.121 0.6529127,0.239 0.7390331,0.368 0.1081512,0.161 -0.1722408,0.8 0.063088,0.9 0.1582212,0.073 0.6218693,-0.744 0.6669323,-0.816 -0.092129,0.643 -0.2132982,1.784 0.510714,0.834 0.3434801,-0.451 0.3645095,-0.6 0.9423173,-0.7 a 8.2114791,8.2 0 0 1 1.1185636,-0.116 8.3737058,8.362 0 0 1 8.63407,7.622 c -0.108151,-0.5 -0.762065,-1.3 -1.370916,-1.11 -0.259363,0.08 -0.355497,0.527 -0.525735,0.786 a 3.7782818,3.773 0 0 1 -0.786099,0.868 4.6935613,4.687 0 0 0 -0.0721,-1.452 c -0.182255,0.748 -0.547765,1.989 -1.468052,1.788 A 1.6543126,1.652 0 0 1 9.8423497,20.556 C 9.7231831,19.796 10.527307,18.905 9.2344999,18.842 6.6408742,18.715 7.2407128,22.524 8.7718532,23.517 A 3.2765804,3.272 0 0 0 7.7554323,23.8 6.9026494,6.893 0 0 0 18.045818,18.878 a 7.0678804,7.058 0 0 1 -0.01502,3.085 7.2230974,7.213 0 0 1 -0.554776,1.559 6.7904926,6.781 0 0 1 -1.30182,1.81 c -0.314439,0.311 -0.891245,0.624 -1.089523,0.941 a 13.427771,13.409 0 0 0 3.524928,-0.968 11.654292,11.638 0 0 1 -4.508302,3.695 11.605223,11.589 0 0 0 9.313019,-5.909 11.673318,11.657 0 0 1 -1.947723,4.668 11.547142,11.531 0 0 0 4.981964,-7.783 11.638269,11.622 0 0 1 0.209293,3.5 A 12.435384,12.418 0 0 0 28.549501,12.91 15.777055,15.755 0 0 0 26.858137,8.948 14.858771,14.838 0 0 0 25.917822,7.554 c -0.133186,-0.173 -0.845181,-0.806 -0.845181,-1 q -0.009,0.029 -0.01502,0 c 0,3.248 -3.5049,5.333 -6.440003,4.463 A 5.0069994,5 0 0 0 23.169981,6.85 5.0069994,5 0 0 0 19.796265,1.414 Z"
     id="path2"
     style="stroke-width:1.0007" />
</svg>
