<?xml version="1.0" encoding="UTF-8" standalone="no"?>
<svg
   role="img"
   viewBox="0 0 30 30"
   version="1.1"
   id="svg4"
   sodipodi:docname="svelte.svg"
   width="30"
   height="30"
   inkscape:version="1.1 (1:1.1+202105261517+ce6663b3b7)"
   xmlns:inkscape="http://www.inkscape.org/namespaces/inkscape"
   xmlns:sodipodi="http://sodipodi.sourceforge.net/DTD/sodipodi-0.dtd"
   xmlns="http://www.w3.org/2000/svg"
   xmlns:svg="http://www.w3.org/2000/svg">
  <defs
     id="defs8" />
  <sodipodi:namedview
     id="namedview6"
     pagecolor="#ffffff"
     bordercolor="#666666"
     borderopacity="1.0"
     inkscape:pageshadow="2"
     inkscape:pageopacity="0.0"
     inkscape:pagecheckerboard="0"
     showgrid="false"
     inkscape:zoom="17.3125"
     inkscape:cx="3.0613718"
     inkscape:cy="16.577617"
     inkscape:current-layer="svg4" />
  <path
     d="m 23.706533,6.1730718 a 7.3,7.3 0 0 0 -9.8,-2.1 l -5.5999997,3.56 a 6.36,6.36 0 0 0 -2.89,4.3000002 6.66,6.66 0 0 0 0.67,4.33 6.14,6.14 0 0 0 -0.95,2.4 6.84,6.84 0 0 0 1.16,5.16 7.33,7.33 0 0 0 9.7999997,2.12 l 5.6,-3.56 a 6.36,6.36 0 0 0 2.88,-4.3 6.66,6.66 0 0 0 -0.67,-4.32 6.79,6.79 0 0 0 -0.2,-7.5900002 z m -10.36,17.9600002 a 4.43,4.43 0 0 1 -4.7599997,-1.77 c -0.65,-0.9 -0.89,-2.01 -0.7,-3.11 l 0.11,-0.53 0.1,-0.33 0.3,0.2 c 0.66,0.5 1.4,0.86 2.1899997,1.1 l 0.2,0.07 -0.02,0.2 c -0.02,0.28 0.06,0.59 0.22,0.83 0.33,0.47 0.9,0.7 1.45,0.55 0.12,-0.04 0.24,-0.08 0.34,-0.14 l 5.58,-3.56 c 0.28,-0.18 0.46,-0.45 0.53,-0.77 0.06,-0.33 -0.02,-0.67 -0.2,-0.94 -0.33,-0.46 -0.9,-0.67 -1.45,-0.53 -0.12,0.04 -0.25,0.09 -0.35,0.15 l -2.11,1.34 a 4.43,4.43 0 0 1 -5.8999997,-1.28 4.1,4.1 0 0 1 -0.7,-3.11 3.85,3.85 0 0 1 1.77,-2.6000002 l 5.5699997,-3.56 c 0.35,-0.22 0.73,-0.38 1.14,-0.5 1.8,-0.47 3.7,0.24 4.76,1.76 a 4.12,4.12 0 0 1 0.57,3.6400002 l -0.1,0.33 -0.29,-0.2 a 7.42,7.42 0 0 0 -2.2,-1.1 l -0.2,-0.06 0.02,-0.2 c 0.02,-0.2900002 -0.06,-0.6000002 -0.22,-0.8400002 -0.33,-0.47 -0.9,-0.67 -1.45,-0.53 -0.12,0.04 -0.24,0.08 -0.34,0.14 l -5.59,3.5900002 c -0.28,0.19 -0.46,0.45 -0.52,0.78 -0.06,0.32 0.02,0.67 0.2,0.93 0.32,0.47 0.9,0.67 1.44,0.53 0.13,-0.04 0.25,-0.08 0.35,-0.14 l 2.13,-1.36 c 0.35,-0.23 0.74,-0.4 1.14,-0.51 1.81,-0.47 3.7,0.24 4.76,1.77 0.65,0.9 0.9,2.01 0.72,3.1 a 3.85,3.85 0 0 1 -1.75,2.6 l -5.58,3.55 a 4.9,4.9 0 0 1 -1.16,0.51 z"
     id="path2" />
</svg>
