<?xml version="1.0" encoding="UTF-8" standalone="no"?>
<svg
   width="30"
   height="30"
   version="1.1"
   viewBox="0 0 30 30"
   id="svg40"
   sodipodi:docname="trpc.svg"
   inkscape:version="1.1.2 (1:1.1+202202050950+0a00cf5339)"
   xmlns:inkscape="http://www.inkscape.org/namespaces/inkscape"
   xmlns:sodipodi="http://sodipodi.sourceforge.net/DTD/sodipodi-0.dtd"
   xmlns="http://www.w3.org/2000/svg"
   xmlns:svg="http://www.w3.org/2000/svg">
  <defs
     id="defs44" />
  <sodipodi:namedview
     id="namedview42"
     pagecolor="#ffffff"
     bordercolor="#666666"
     borderopacity="1.0"
     inkscape:pageshadow="2"
     inkscape:pageopacity="0.0"
     inkscape:pagecheckerboard="0"
     showgrid="false"
     inkscape:zoom="17.3125"
     inkscape:cx="3.8700361"
     inkscape:cy="15.249097"
     inkscape:current-layer="svg40" />
  <g
     id="g1027"
     transform="matrix(1.0357144,0,0,1.0357144,-0.535716,-0.535716)">
    <g
       id="g38"
       transform="matrix(1.166618,0,0,1.166618,1.000584,1.000584)">
      <circle
         cx="12"
         cy="12"
         stroke-width="1.211"
         id="ellipse2"
         r="0" />
      <g
         transform="translate(-1.1558,1.9053)"
         stroke-linejoin="round"
         stroke-width="0.5"
         id="g36">
        <g
           transform="translate(-0.019411,0.36852)"
           id="g10">
          <path
             d="m 13.050781,3.640625 -2.162109,1.2480469 a 0.250025,0.250025 0 0 0 -0.125,0.2148437 v 2.4980469 a 0.250025,0.250025 0 0 0 0.125,0.2148437 l 2.162109,1.2480469 a 0.250025,0.250025 0 0 0 0.25,0 l 2.16211,-1.2480469 a 0.250025,0.250025 0 0 0 0.125,-0.2148437 V 5.1035156 a 0.250025,0.250025 0 0 0 -0.125,-0.2148437 L 13.300781,3.640625 a 0.250025,0.250025 0 0 0 -0.25,0 z m 0.125,0.5039062 1.91211,1.1035157 V 7.4570312 L 13.175781,8.5605469 11.263672,7.4570312 V 5.2480469 Z"
             id="path4" />
          <path
             d="m 11.138672,4.8867187 -0.25,0.4335938 2.037109,1.171875 v 2.3574219 h 0.5 V 6.3476562 A 0.250025,0.250025 0 0 0 13.298828,6.1308594 Z"
             id="path6" />
          <path
             d="m 15.212891,4.8867187 -2.16211,1.2441407 0.248047,0.4335937 2.16211,-1.2441406 z"
             id="path8" />
        </g>
        <g
           transform="translate(-3.698,6.2401)"
           id="g18">
          <path
             d="m 13.050781,3.640625 -2.162109,1.2480469 a 0.250025,0.250025 0 0 0 -0.125,0.2148437 v 2.4980469 a 0.250025,0.250025 0 0 0 0.125,0.2148437 l 2.162109,1.2480469 a 0.250025,0.250025 0 0 0 0.25,0 l 2.16211,-1.2480469 a 0.250025,0.250025 0 0 0 0.125,-0.2148437 V 5.1035156 a 0.250025,0.250025 0 0 0 -0.125,-0.2148437 L 13.300781,3.640625 a 0.250025,0.250025 0 0 0 -0.25,0 z m 0.125,0.5039062 1.91211,1.1035157 V 7.4570312 L 13.175781,8.5605469 11.263672,7.4570312 V 5.2480469 Z"
             id="path12" />
          <path
             d="m 11.138672,4.8867187 -0.25,0.4335938 2.037109,1.171875 v 2.3574219 h 0.5 V 6.3476562 A 0.250025,0.250025 0 0 0 13.298828,6.1308594 Z"
             id="path14" />
          <path
             d="m 15.212891,4.8867187 -2.16211,1.2441407 0.248047,0.4335937 2.16211,-1.2441406 z"
             id="path16" />
        </g>
        <g
           transform="translate(3.6592,6.2401)"
           id="g26">
          <path
             d="m 13.050781,3.640625 -2.162109,1.2480469 a 0.250025,0.250025 0 0 0 -0.125,0.2148437 v 2.4980469 a 0.250025,0.250025 0 0 0 0.125,0.2148437 l 2.162109,1.2480469 a 0.250025,0.250025 0 0 0 0.25,0 l 2.16211,-1.2480469 a 0.250025,0.250025 0 0 0 0.125,-0.2148437 V 5.1035156 a 0.250025,0.250025 0 0 0 -0.125,-0.2148437 L 13.300781,3.640625 a 0.250025,0.250025 0 0 0 -0.25,0 z m 0.125,0.5039062 1.91211,1.1035157 V 7.4570312 L 13.175781,8.5605469 11.263672,7.4570312 V 5.2480469 Z"
             id="path20" />
          <path
             d="m 11.138672,4.8867187 -0.25,0.4335938 2.037109,1.171875 v 2.3574219 h 0.5 V 6.3476562 A 0.250025,0.250025 0 0 0 13.298828,6.1308594 Z"
             id="path22" />
          <path
             d="m 15.212891,4.8867187 -2.16211,1.2441407 0.248047,0.4335937 2.16211,-1.2441406 z"
             id="path24" />
        </g>
        <g
           id="g34">
          <path
             d="M 10.869141,6.5039062 8.2714844,8.0039063 a 0.250025,0.250025 0 0 0 -0.125,0.2167968 v 2.4999999 h 0.5 V 8.3652344 L 11.119141,6.9375 Z"
             id="path28" />
          <path
             d="m 15.443359,6.5039062 -0.25,0.4335938 2.472657,1.4277344 v 2.3554686 h 0.5 V 8.2207031 a 0.250025,0.250025 0 0 0 -0.125,-0.2167968 z"
             id="path30" />
          <path
             d="m 10.681641,14.248047 -0.25,0.433594 2.599609,1.5 a 0.250025,0.250025 0 0 0 0.25,0 l 2.597656,-1.5 -0.25,-0.433594 -2.472656,1.427734 z"
             id="path32" />
        </g>
      </g>
    </g>
    <path
       d="M 15,1 C 7.2767732,1 1,7.2767727 1,15 1,22.723227 7.2767732,29 15,29 22.723227,29 29,22.723227 29,15 29,7.2767727 22.723227,1 15,1 Z m 0,1.4785156 C 21.924635,2.4785156 27.521484,8.0753639 27.521484,15 27.521484,21.924636 21.924635,27.521484 15,27.521484 8.0753645,27.521484 2.4785156,21.924636 2.4785156,15 2.4785156,8.0753639 8.0753645,2.4785156 15,2.4785156 Z"
       id="path861" />
  </g>
</svg>
