<?xml version="1.0" encoding="UTF-8" standalone="no"?>
<svg
   width="30"
   height="30"
   viewBox="0 0 30 30"
   version="1.1"
   preserveAspectRatio="xMidYMid"
   id="svg22"
   sodipodi:docname="vite.svg"
   inkscape:version="1.1 (1:1.1+202105261517+ce6663b3b7)"
   xmlns:inkscape="http://www.inkscape.org/namespaces/inkscape"
   xmlns:sodipodi="http://sodipodi.sourceforge.net/DTD/sodipodi-0.dtd"
   xmlns="http://www.w3.org/2000/svg"
   xmlns:svg="http://www.w3.org/2000/svg">
  <sodipodi:namedview
     id="namedview24"
     pagecolor="#ffffff"
     bordercolor="#666666"
     borderopacity="1.0"
     inkscape:pageshadow="2"
     inkscape:pageopacity="0.0"
     inkscape:pagecheckerboard="0"
     showgrid="false"
     height="32px"
     inkscape:zoom="18.291229"
     inkscape:cx="16.866007"
     inkscape:cy="13.449069"
     inkscape:current-layer="g20" />
  <defs
     id="defs14">
    <linearGradient
       x1="-2.001267"
       y1="48.342388"
       x2="139.28905"
       y2="219.34572"
       id="linearGradient-1"
       gradientTransform="scale(1.0592942,0.94402482)"
       gradientUnits="userSpaceOnUse">
      <stop
         stop-color="#41D1FF"
         offset="0%"
         id="stop2" />
      <stop
         stop-color="#BD34FE"
         offset="100%"
         id="stop4" />
    </linearGradient>
    <linearGradient
       x1="0.43376008"
       y1="0.022417979"
       x2="0.50315881"
       y2="0.89029908"
       id="linearGradient-2">
      <stop
         stop-color="#FFEA83"
         offset="0%"
         id="stop7" />
      <stop
         stop-color="#FFDD35"
         offset="8.33333%"
         id="stop9" />
      <stop
         stop-color="#FFA800"
         offset="100%"
         id="stop11" />
    </linearGradient>
  </defs>
  <g
     id="g20"
     transform="translate(-115.19996,-130.84312)">
    <path
       id="path16"
       style="stroke-width:0.1"
       d="m 118.06949,134.43628 c -0.49378,-0.0145 -0.83942,0.52635 -0.58203,0.97773 l 12.26407,21.50645 c 0.25201,0.44181 0.88979,0.43928 1.13808,-0.005 l 12.02559,-21.50391 c 0.26973,-0.48241 -0.14393,-1.06102 -0.6877,-0.96191 l -6.97031,1.27051 -0.60176,2.08574 c -0.0676,0.23448 0.13631,0.45773 0.37598,0.41152 l 2.55039,-0.49238 c 0.26613,-0.0514 0.47553,0.22507 0.3541,0.46738 l -7.25176,14.47188 -0.13105,0.20273 c -0.19647,0.30365 -0.66773,0.11062 -0.59453,-0.24355 l 1.16992,-5.66211 c 0.0502,-0.24281 -0.17779,-0.45093 -0.41504,-0.37891 l -1.53027,0.46504 c -0.23692,0.072 -0.46478,-0.13552 -0.41524,-0.37813 l 0.73614,-3.60468 c 0.0476,-0.23313 -0.16174,-0.43725 -0.39356,-0.38379 l -2.47773,0.57187 c -0.21255,0.049 -0.41249,-0.12012 -0.39961,-0.33789 l 0.41152,-6.95351 -8.47461,-1.51485 c -0.0341,-0.006 -0.0677,-0.01 -0.10059,-0.0105 z" />
  </g>
</svg>
